<svg id="Layer_1" data-name="Layer 1" xmlns="http://www.w3.org/2000/svg" viewBox="0 0 30 30">
	<defs>
		<style>.cls-1{fill:#414042;}.cls-2{fill:#231f20;}</style>
	</defs>
	<rect class="cls-1" x="7.81" y="12.31" width="19.71" height="9.36" rx="3" />
	<path class="cls-2" d="M16,12.37c-2-2.63-4.28-4-6.68-4s-4.74,1.42-6.69,4a.92.92,0,0,0,0,1.05c1.95,2.63,4.29,4,6.69,4s4.73-1.42,6.68-4A.92.92,0,0,0,16,12.37ZM9.33,15.62a2.73,2.73,0,1,1,2.72-2.73A2.73,2.73,0,0,1,9.33,15.62Z" />
	<circle class="cls-2" cx="9.33" cy="12.89" r="1.68" />
</svg>